{
	"asset":{
		"generator":"Khronos glTF Blender I/O v3.6.28",
		"version":"2.0"
	},
	"extensionsUsed":[
		"KHR_materials_specular",
		"KHR_materials_ior"
	],
	"scene":0,
	"scenes":[
		{
			"name":"Scene",
			"nodes":[
				1
			]
		}
	],
	"nodes":[
		{
			"mesh":0,
			"name":"brain"
		},
		{
			"children":[
				0
			],
			"name":"Brain",
			"rotation":[
				0.7071068286895752,
				0,
				0,
				0.7071068286895752
			],
			"scale":[
				0.009999999776482582,
				0.009999999776482582,
				0.009999999776482582
			]
		}
	],
	"materials":[
		{
			"doubleSided":true,
			"extensions":{
				"KHR_materials_specular":{
					"specularColorFactor":[
						2.371357614441398,
						2.371357614441398,
						2.371357614441398
					]
				},
				"KHR_materials_ior":{
					"ior":1.4500000476837158
				}
			},
			"name":"brain",
			"pbrMetallicRoughness":{
				"baseColorTexture":{
					"index":0
				},
				"metallicFactor":0.5,
				"roughnessFactor":0.8883876800537109
			}
		}
	],
	"meshes":[
		{
			"name":"brain",
			"primitives":[
				{
					"attributes":{
						"POSITION":0,
						"NORMAL":1,
						"TEXCOORD_0":2,
						"TEXCOORD_1":3
					},
					"indices":4,
					"material":0
				}
			]
		}
	],
	"textures":[
		{
			"sampler":0,
			"source":0
		}
	],
	"images":[
		{
			"mimeType":"image/jpeg",
			"name":"brain_tex",
			"uri":"textures/brain_tex.jpg"
		}
	],
	"accessors":[
		{
			"bufferView":0,
			"componentType":5126,
			"count":49682,
			"max":[
				0.52923583984375,
				0.6581108570098877,
				-0.0005950927734375
			],
			"min":[
				-0.52923583984375,
				-0.658111572265625,
				-1.124481201171875
			],
			"type":"VEC3"
		},
		{
			"bufferView":1,
			"componentType":5126,
			"count":49682,
			"type":"VEC3"
		},
		{
			"bufferView":2,
			"componentType":5126,
			"count":49682,
			"type":"VEC2"
		},
		{
			"bufferView":3,
			"componentType":5126,
			"count":49682,
			"type":"VEC2"
		},
		{
			"bufferView":4,
			"componentType":5123,
			"count":284142,
			"type":"SCALAR"
		}
	],
	"bufferViews":[
		{
			"buffer":0,
			"byteLength":596184,
			"byteOffset":0,
			"target":34962
		},
		{
			"buffer":0,
			"byteLength":596184,
			"byteOffset":596184,
			"target":34962
		},
		{
			"buffer":0,
			"byteLength":397456,
			"byteOffset":1192368,
			"target":34962
		},
		{
			"buffer":0,
			"byteLength":397456,
			"byteOffset":1589824,
			"target":34962
		},
		{
			"buffer":0,
			"byteLength":568284,
			"byteOffset":1987280,
			"target":34963
		}
	],
	"samplers":[
		{
			"magFilter":9729,
			"minFilter":9987
		}
	],
	"buffers":[
		{
			"byteLength":2555564,
			"uri":"brain.bin"
		}
	]
}
